HIERARCHY
ROOT Hips
{
 OFFSET 0.000000 0.000000 0.000000
 CHANNELS 6 Xposition Yposition Zposition Yrotation Xrotation Zrotation
 JOINT Chest
 {
  OFFSET 0.000000 9.585900 0.002600
  CHANNELS 3 Yrotation Xrotation Zrotation
  JOINT Chest2
  {
   OFFSET 0.000000 9.601200 -0.005300
   CHANNELS 3 Yrotation Xrotation Zrotation
   JOINT Chest3
   {
    OFFSET 0.000000 9.561800 0.000000
    CHANNELS 3 Yrotation Xrotation Zrotation
    JOINT Chest4
    {
     OFFSET 0.000000 9.552100 0.000000
     CHANNELS 3 Yrotation Xrotation Zrotation
     JOINT Neck
     {
      OFFSET 0.000000 14.453000 0.000000
      CHANNELS 3 Yrotation Xrotation Zrotation
      JOINT Head
      {
       OFFSET 0.000000 8.936500 -0.011300
       CHANNELS 3 Yrotation Xrotation Zrotation
       End Site
       {
        OFFSET 0.000000 17.073600 -0.006000
       }
      }
     }
     JOINT RightCollar
     {
      OFFSET -2.921100 9.558500 0.000000
      CHANNELS 3 Yrotation Xrotation Zrotation
      JOINT RightShoulder
      {
       OFFSET -13.519700 0.000000 0.000000
       CHANNELS 3 Yrotation Xrotation Zrotation
       JOINT RightElbow
       {
        OFFSET 0.000000 -29.696600 0.000000
        CHANNELS 3 Yrotation Xrotation Zrotation
        JOINT RightWrist
        {
         OFFSET 0.000000 -24.004700 0.000000
         CHANNELS 3 Yrotation Xrotation Zrotation
         End Site
         {
          OFFSET 0.000000 -17.728500 0.000000
         }
        }
       }
      }
     }
     JOINT LeftCollar
     {
      OFFSET 2.921100 9.558500 0.000000
      CHANNELS 3 Yrotation Xrotation Zrotation
      JOINT LeftShoulder
      {
       OFFSET 13.519700 0.000000 0.000000
       CHANNELS 3 Yrotation Xrotation Zrotation
       JOINT LeftElbow
       {
        OFFSET 0.000000 -29.696600 0.000000
        CHANNELS 3 Yrotation Xrotation Zrotation
        JOINT LeftWrist
        {
         OFFSET 0.000000 -24.004700 0.000000
         CHANNELS 3 Yrotation Xrotation Zrotation
         End Site
         {
          OFFSET 0.000000 -17.728500 0.000000
         }
        }
       }
      }
     }
    }
   }
  }
 }
 JOINT RightHip
 {
  OFFSET -7.771700 -0.012900 -0.001300
  CHANNELS 3 Yrotation Xrotation Zrotation
  JOINT RightKnee
  {
   OFFSET 0.000000 -40.869800 0.001200
   CHANNELS 3 Yrotation Xrotation Zrotation
   JOINT RightAnkle
   {
    OFFSET 0.000000 -39.717900 0.002100
    CHANNELS 3 Yrotation Xrotation Zrotation
    JOINT RightToe
    {
     OFFSET 0.000000 -4.965400 11.033500
     CHANNELS 3 Yrotation Xrotation Zrotation
     End Site
     {
      OFFSET 0.000000 -1.423100 5.872300
     }
    }
   }
  }
 }
 JOINT LeftHip
 {
  OFFSET 7.771700 -0.012900 -0.001300
  CHANNELS 3 Yrotation Xrotation Zrotation
  JOINT LeftKnee
  {
   OFFSET 0.000000 -40.869800 0.001200
   CHANNELS 3 Yrotation Xrotation Zrotation
   JOINT LeftAnkle
   {
    OFFSET 0.000000 -39.717900 0.002100
    CHANNELS 3 Yrotation Xrotation Zrotation
    JOINT LeftToe
    {
     OFFSET 0.000000 -4.965400 11.033500
     CHANNELS 3 Yrotation Xrotation Zrotation
     End Site
     {
      OFFSET 0.000000 -1.423100 5.872300
     }
    }
   }
  }
 }
}
MOTION
Frames: 11
Frame Time: 0.008333
0.000000 85.388000 0.000000 0.000000 -5.767877 0.000000 0.000000 11.653817 0.000000 0.000000 -5.885947 0.000000 0.000000 -0.000000 0.000000 0.000000 -0.000000 0.000000 0.000000 12.528835 0.000000 0.000000 0.711642 0.000000 0.000000 -0.000000 0.000000 0.000000 0.000000 -90.000000 0.000000 -2.309062 0.000000 0.000000 2.309062 0.000000 0.000000 -0.000000 0.000000 0.000000 -0.000000 90.000000 0.000000 -2.309062 0.000000 0.000000 2.309062 0.000000 0.000000 8.520406 0.000000 0.000000 1.905762 0.000000 -0.000000 -4.658285 0.000000 0.000000 -0.000000 0.000000 0.000000 8.520406 0.000000 0.000000 1.905762 0.000000 -0.000000 -4.658285 0.000000 0.000000 -0.000000 0.000000
-32.097287 57.386526 24.298376 168.858164 -11.949518 1.599107 3.706464 5.498362 2.967121 0.117045 0.204956 0.078415 0.206236 0.360951 0.138441 2.991121 5.033409 2.073194 9.982505 7.291206 0.203073 19.686986 -21.541540 -4.606209 2.937235 3.021918 -1.908942 -24.299532 -19.870298 -23.266243 -87.298898 -60.497594 109.848215 -12.130341 -4.701400 -25.194071 0.935476 2.046105 1.818082 21.239728 -16.435783 12.628868 64.862264 -47.474979 -94.324248 7.670038 -7.347035 2.291459 -7.698703 -61.390546 -4.391159 -45.211925 70.625084 -49.214811 -6.524108 -6.511821 2.258614 1.078021 0.593570 0.202714 -1.141547 -62.164584 9.820942 36.235187 63.690515 27.431135 -16.357473 -8.899694 5.798863 -1.215234 -0.852353 -0.282218
-32.119094 57.394068 24.302763 168.743126 -11.954356 1.652121 3.691140 5.478853 2.946495 0.117000 0.204651 0.079346 0.206174 0.360382 0.140056 2.990954 5.024908 2.095815 9.691962 7.577223 0.283675 19.024375 -21.070181 -4.251649 2.905041 3.236077 -1.855417 -23.689841 -19.697735 -23.110971 -85.698379 -60.593915 108.484070 -12.163665 -4.586816 -25.344662 0.897930 2.376013 1.691360 21.086208 -16.112282 12.424797 64.062060 -47.806802 -93.294329 7.606933 -7.216838 2.561975 -7.702170 -61.382285 -4.409995 -44.930541 70.655986 -48.906584 -6.464411 -6.555391 2.245877 1.046941 0.649355 0.200270 -0.815095 -62.161672 9.620350 36.089497 63.728803 27.312068 -16.329172 -8.845653 5.848505 -1.259096 -0.910249 -0.309628
-32.132180 57.402082 24.309304 168.627161 -11.966247 1.653285 3.673274 5.464617 2.978214 0.116575 0.204514 0.080258 0.205530 0.360100 0.141647 2.982521 5.020929 2.118030 9.395672 7.870102 0.359143 18.356193 -20.583419 -3.907411 2.887652 3.453111 -1.795776 -23.051625 -19.520389 -22.929778 -84.106938 -60.673982 107.102285 -12.199984 -4.489502 -25.532001 0.883390 2.698037 1.566907 20.941477 -15.773410 12.190210 63.233152 -48.145652 -92.253544 7.541680 -7.070737 2.878697 -7.684200 -61.361310 -4.371747 -44.776810 70.663894 -48.687003 -6.479277 -6.557578 2.197611 1.071742 0.668122 0.245305 -0.602329 -62.153843 9.540924 36.027147 63.750343 27.277238 -16.314787 -8.802425 5.887744 -1.344539 -0.947298 -0.369991
-32.141428 57.409806 24.318121 168.513248 -11.976117 1.642582 3.650612 5.449232 3.020917 0.115866 0.204540 0.081047 0.204370 0.360089 0.143061 2.967314 5.021213 2.137546 9.091855 8.167744 0.429464 17.679260 -20.085204 -3.573010 2.879617 3.655877 -1.726224 -22.374119 -19.311350 -22.725851 -82.586632 -60.757021 105.736623 -12.235002 -4.417722 -25.754325 0.881743 2.992314 1.441668 20.797876 -15.402996 11.946660 62.394525 -48.491623 -91.218179 7.466724 -6.901889 3.262265 -7.674894 -61.342092 -4.318264 -44.620410 70.674573 -48.461947 -6.474650 -6.546844 2.123679 1.078798 0.671727 0.266596 -0.425048 -62.148511 9.496304 36.004605 63.757900 27.288485 -16.330164 -8.761908 5.907689 -1.360282 -0.970055 -0.409828
-32.145197 57.416572 24.329436 168.410145 -11.981598 1.619268 3.616764 5.430372 3.071609 0.115021 0.204757 0.081695 0.202849 0.360507 0.144127 2.947152 5.026876 2.152242 8.780729 8.467814 0.494478 16.994539 -19.579658 -3.249362 2.884986 3.847312 -1.644728 -21.663892 -19.062978 -22.492286 -81.198154 -60.849350 104.428318 -12.261367 -4.370786 -26.004361 0.884288 3.252078 1.315044 20.648510 -15.000372 11.708772 61.560764 -48.847068 -90.197924 7.381750 -6.701759 3.732082 -7.680990 -61.327191 -4.240913 -44.494286 70.680064 -48.268412 -6.492476 -6.527761 2.100275 1.099151 0.668312 0.289460 -0.315603 -62.144469 9.508103 35.980206 63.758802 27.297138 -16.357010 -8.731873 5.909371 -1.322440 -0.969947 -0.433768
-32.149267 57.423732 24.334170 168.266765 -12.025758 1.646784 3.618685 5.455586 3.078990 0.114128 0.205215 0.082150 0.201263 0.361382 0.144813 2.924686 5.037845 2.161375 8.463383 8.768523 0.554761 16.304238 -19.070165 -2.936341 2.888807 4.037934 -1.553664 -20.918833 -18.778295 -22.216581 -79.978460 -60.950497 103.213672 -12.278370 -4.349146 -26.270765 0.886579 3.498852 1.194585 20.489814 -14.585568 11.464769 60.738996 -49.217000 -89.196210 7.280623 -6.458995 4.298552 -7.570152 -61.281724 -4.262844 -44.357853 70.696197 -48.072317 -6.482327 -6.522799 2.075235 1.100150 0.673987 0.298643 -0.150939 -62.098400 9.487856 36.177847 63.746150 27.474085 -16.445823 -8.703822 5.929039 -1.336319 -0.992930 -0.466098
-32.146834 57.429249 24.340836 168.131000 -12.064664 1.669457 3.617641 5.478087 3.086622 0.113289 0.205735 0.082289 0.199823 0.362309 0.145106 2.903712 5.050154 2.164272 8.140137 9.069094 0.611590 15.608316 -18.558384 -2.631581 2.879809 4.235966 -1.452130 -20.143975 -18.462450 -21.889159 -78.935446 -61.073722 102.107529 -12.298408 -4.361110 -26.549503 0.881386 3.754208 1.084866 20.321985 -14.173012 11.199884 59.933561 -49.605979 -88.212200 7.146735 -6.159371 4.960493 -7.491724 -61.245401 -4.268348 -44.220991 70.719754 -47.885244 -6.424689 -6.513466 2.060933 1.059304 0.670483 0.249798 0.081236 -62.065588 9.410369 36.308735 63.731108 27.643673 -16.558596 -8.678777 5.917648 -1.291404 -1.004139 -0.474258
-32.138446 57.433447 24.347327 168.032217 -12.109805 1.687582 3.586945 5.509809 3.088369 0.112537 0.206170 0.082129 0.198486 0.363136 0.144962 2.884622 5.061982 2.160829 7.812376 9.368386 0.665598 14.909309 -18.046253 -2.334590 2.864252 4.437200 -1.336306 -19.361375 -18.116391 -21.502860 -78.061377 -61.229706 101.101556 -12.328466 -4.411710 -26.841564 0.857377 4.015168 0.983138 20.153445 -13.760426 10.911601 59.141796 -50.012931 -87.240728 6.971020 -5.800739 5.684839 -7.452449 -61.207435 -4.258901 -44.126752 70.743065 -47.779284 -6.331404 -6.497615 2.121715 0.972088 0.654275 0.193016 0.254219 -62.028841 9.350529 36.439506 63.711884 27.810748 -16.637682 -8.646826 5.894945 -1.187717 -0.994295 -0.474908
-32.131050 57.434678 24.360984 167.991215 -12.108952 1.725943 3.563094 5.504888 3.055610 0.055138 0.196954 0.082213 0.197215 0.364118 0.144424 2.866391 5.075705 2.152293 7.481110 9.665350 0.715926 14.209586 -17.535565 -2.047508 2.841766 4.634090 -1.208093 -18.592482 -17.743011 -21.047338 -77.344661 -61.413391 100.198032 -12.368659 -4.494335 -27.145597 0.811234 4.271569 0.886170 19.990575 -13.341081 10.597997 58.347535 -50.442484 -86.266905 6.762904 -5.410923 6.404192 -7.438160 -61.224187 -4.287000 -44.040406 70.766031 -47.689289 -6.173819 -6.456355 2.161155 0.833697 0.608872 0.146750 0.417932 -62.038820 9.237566 36.534303 63.697105 27.939992 -16.806643 -8.664554 5.847431 -1.006993 -0.938555 -0.425364
-32.116329 57.435297 24.372223 167.890922 -12.126949 1.767900 3.516339 5.510739 3.022279 0.083151 0.202544 0.080934 0.195864 0.365198 0.143481 2.847457 5.091583 2.138808 7.147609 9.960609 0.762224 13.511542 -17.025202 -1.771490 2.814090 4.826985 -1.071510 -17.856395 -17.350444 -20.515506 -76.769441 -61.610310 99.408564 -12.419276 -4.598825 -27.453663 0.751961 4.520311 0.792957 19.827798 -12.909777 10.259574 57.542358 -50.896949 -85.286882 6.547040 -5.032823 7.059200 -7.394123 -61.222416 -4.291094 -43.960718 70.789369 -47.586766 -6.095158 -6.458464 2.141844 0.773525 0.605478 0.139839 0.599212 -62.022451 9.166246 36.543049 63.698060 27.969972 -16.805450 -8.640703 5.853251 -0.972644 -0.944501 -0.433294
